#!OML:ASF I:\golf\golf\golf 2\Subject 1\2002-09-07\Subject1.ASF
:FULLY-SPECIFIED
:DEGREES
289
root -5.23168 17.9898 -3.01524 -167.296 0.525812 -174.266
lowerback -5.34509 11.4513 17.2092
upperback -13.2069 20.5253 4.35149
thorax -8.48762 10.5648 -4.32144
lowerneck -7.83861 -19.7951 -2.16691
upperneck 5.5902 -26.8976 3.52354
head 3.98633 -13.2688 -0.2484
rclavicle -5.64548e-014 -1.11319e-013
rhumerus 108.111 31.4579 -50.5492
rradius 60.7488
rwrist 8.63581
rhand -26.7126 21.8286
rfingers 7.12502
rthumb -0.14247 -8.15113
lclavicle -5.64548e-014 -1.11319e-013
lhumerus 64.0754 17.6329 72.4253
lradius 77.5057
lwrist 38.5924
lhand -22.9494 14.7584
lfingers 7.12502
lthumb -176.508 224.71
rfemur 16.6524 -9.45008 22.8445
rtibia 11.9121
rfoot 17.8517 -33.166
rtoes 17.5226
lfemur -30.7189 -22.4766 -10.0877
ltibia 29.8227
lfoot 25.6256 -45.0206
ltoes 48.5059
290
root -5.22915 17.9861 -3.05648 -167.158 -0.157386 -174.097
lowerback -5.69788 11.521 17.0711
upperback -13.3303 20.6174 4.2037
thorax -8.41005 10.6511 -4.32355
lowerneck -7.86623 -19.8016 -2.31902
upperneck 5.47357 -26.8693 3.58151
head 3.98073 -13.2525 -0.211316
rclavicle -5.80451e-014 -5.24792e-014
rhumerus 109.122 30.9371 -50.1907
rradius 61.7819
rwrist 9.26205
rhand -27.4588 22.2049
rfingers 7.12502
rthumb -0.863244 -7.77313
lclavicle -5.80451e-014 -5.24792e-014
lhumerus 64.7887 18.3467 71.7779
lradius 78.5046
lwrist 36.0846
lhand -24.5361 14.2336
lfingers 7.12502
lthumb -178.04 224.204
rfemur 16.9664 -9.67408 23.1367
rtibia 11.1824
rfoot 19.0927 -32.749
rtoes 16.3418
lfemur -30.9952 -22.6113 -9.82502
ltibia 30.0381
lfoot 26.1953 -45.3579
ltoes 48.7482
291
root -5.22751 17.9855 -3.09661 -167.063 -0.826637 -173.954
lowerback -6.15159 16.4928 16.3853
upperback -14.0924 19.3172 3.00281
thorax -8.06293 6.949 -4.28369
lowerneck -7.84944 -19.7384 -2.41199
upperneck 5.26765 -26.7493 3.65685
head 3.92623 -13.1927 -0.155857
rclavicle 6.2816e-014 -6.04305e-014
rhumerus 110.175 30.3829 -49.7157
rradius 62.825
rwrist 9.38799
rhand -28.5477 22.7892
rfingers 7.12502
rthumb -1.91491 -7.18193
lclavicle 6.2816e-014 -6.04305e-014
lhumerus 65.5708 19.3984 71.4898
lradius 79.6934
lwrist 35.549
lhand -25.1676 14.0352
lfingers 7.12502
lthumb -178.65 224.011
rfemur 17.2932 -9.6984 23.456
rtibia 10.4894
rfoot 19.7808 -32.8895
rtoes 17.0627
lfemur -31.1894 -22.7836 -9.58824
ltibia 30.2146
lfoot 26.6584 -45.5559
ltoes 48.8245
292
root -5.22723 17.9862 -3.13713 -167.056 -1.41022 -173.967
lowerback -6.3489 16.5103 16.1618
upperback -14.2111 19.3282 2.77063
thorax -8.06958 6.97459 -4.38957
lowerneck -7.79577 -19.675 -2.41349
upperneck 5.16182 -26.657 3.72229
head 3.88679 -13.1479 -0.117112
rclavicle -4.77083e-015 -2.22639e-014
rhumerus 111.058 29.8322 -49.4185
rradius 63.8456
rwrist 9.58949
rhand -28.6653 23.2253
rfingers 7.12502
rthumb -2.02849 -6.7448
lclavicle -4.77083e-015 -2.22639e-014
lhumerus 66.3584 20.2795 71.2224
lradius 80.8469
lwrist 35.2052
lhand -25.6728 14.0528
lfingers 7.12502
lthumb -179.138 224.031
rfemur 17.7402 -10.0699 23.4197
rtibia 9.79867
rfoot 21.3387 -32.3435
rtoes 16.6765
lfemur -31.2476 -23.149 -9.53452
ltibia 30.3665
lfoot 26.8176 -45.5731
ltoes 48.7694
293
root -5.225 17.9827 -3.17746 -167.069 -1.93683 -173.918
lowerback -6.48652 16.5466 16.0115
upperback -14.3735 19.3711 2.5234
thorax -8.12986 6.99646 -4.5548
lowerneck -7.81295 -19.6229 -2.29108
upperneck 5.17041 -26.5792 3.61312
head 3.85479 -13.1126 -0.153758
rclavicle 3.89618e-014 3.02153e-014
rhumerus 111.785 29.3392 -49.2706
rradius 64.6462
rwrist 10.4258
rhand -29.6158 23.27
rfingers 7.12502
rthumb -2.9464 -6.68942
lclavicle 3.89618e-014 3.02153e-014
lhumerus 67.1133 21.0468 71.0272
lradius 81.9929
lwrist 35.2945
lhand -25.9398 13.9548
lfingers 7.12502
lthumb -179.396 223.934
rfemur 18.2327 -10.3751 23.432
rtibia 9.02282
rfoot 23.4298 -31.2202
rtoes 14.5746
lfemur -31.2901 -23.3938 -9.4563
ltibia 30.4855
lfoot 27.5864 -45.4354
ltoes 49.2379
294
root -5.21718 17.9771 -3.21871 -167.066 -2.41829 -173.725
lowerback -6.80139 16.5525 15.8358
upperback -14.3995 19.3208 2.4372
thorax -8.01444 7.00311 -4.5004
lowerneck -8.19153 -19.5429 -2.10692
upperneck 5.29548 -26.4449 3.3743
head 3.89912 -13.0409 -0.27627
rclavicle 5.88403e-014 1.43125e-014
rhumerus 112.579 28.8676 -48.849
rradius 65.6624
rwrist 10.9471
rhand -30.9061 23.2864
rfingers 7.12502
rthumb -4.19243 -6.65211
lclavicle 5.88403e-014 1.43125e-014
lhumerus 68.0079 21.9789 71.1447
lradius 83.0674
lwrist 34.9679
lhand -26.1578 13.6249
lfingers 7.12502
lthumb -179.607 223.604
rfemur 18.6644 -10.6182 23.6285
rtibia 8.28879
rfoot 24.5758 -30.7507
rtoes 20.9119
lfemur -31.3615 -23.4581 -9.2145
ltibia 30.601
lfoot 28.739 -45.2531
ltoes 50.0581
295
root -5.21143 17.9731 -3.25533 -167.058 -2.9106 -173.581
lowerback -7.12095 16.5072 15.6187
upperback -14.3741 19.209 2.38684
thorax -7.87031 6.99279 -4.39672
lowerneck -8.66376 -19.5481 -1.98029
upperneck 5.4442 -26.436 3.23462
head 3.99754 -13.025 -0.389997
rclavicle -1.15295e-014 7.95139e-015
rhumerus 113.267 28.418 -48.3232
rradius 66.9404
rwrist 10.7839
rhand -32.1134 23.7833
rfingers 7.12502
rthumb -5.35821 -6.12899
lclavicle -1.15295e-014 7.95139e-015
lhumerus 68.992 22.8951 71.4647
lradius 83.9905
lwrist 33.9351
lhand -26.1688 13.3904
lfingers 7.12502
lthumb -179.617 223.37
rfemur 19.0701 -10.8632 23.7588
rtibia 7.59667
rfoot 25.3504 -30.6252
rtoes 22.5403
lfemur -31.4435 -23.552 -9.01731
ltibia 30.7203
lfoot 29.6723 -45.1755
ltoes 50.5541
296
root -5.21163 17.9752 -3.28674 -166.979 -3.47589 -173.382
lowerback -7.37463 16.5657 15.6231
upperback -14.5472 19.2199 2.23229
thorax -7.87822 6.97704 -4.50511
lowerneck -8.59015 -19.6244 -2.15374
upperneck 5.58783 -26.5266 3.20384
head 4.05915 -13.0723 -0.391618
rclavicle 1.78906e-014 3.18055e-015
rhumerus 113.748 27.9747 -48.0223
rradius 67.7986
rwrist 10.5766
rhand -33.6804 24.413
rfingers 7.12502
rthumb -6.8711 -5.45549
lclavicle 1.78906e-014 3.18055e-015
lhumerus 69.6961 23.4963 71.6864
lradius 84.8691
lwrist 32.9122
lhand -26.2027 13.5252
lfingers 7.12502
lthumb -179.65 223.505
rfemur 19.3112 -11.1527 23.9253
rtibia 6.95623
rfoot 27.4446 -29.6017
rtoes 19.4486
lfemur -31.5963 -23.6952 -8.71196
ltibia 30.8061
lfoot 29.9973 -45.3781
ltoes 50.502
297
root -5.21408 17.979 -3.31803 -166.889 -3.94609 -173.209
lowerback -7.64598 16.7357 15.6937
upperback -14.7476 19.3645 2.01825
thorax -7.84767 7.01825 -4.67523
lowerneck -8.3007 -19.7757 -2.49956
upperneck 5.6883 -26.7145 3.25064
head 4.10671 -13.1725 -0.336439
rclavicle 1.83279e-013 1.4233e-013
rhumerus 114.405 27.4951 -47.8179
rradius 68.0868
rwrist 10.5097
rhand -34.5683 25.4684
rfingers 7.12502
rthumb -7.72815 -4.37041
lclavicle 1.83279e-013 1.4233e-013
lhumerus 70.3267 23.8213 71.9689
lradius 85.6525
lwrist 31.7118
lhand -26.3972 13.6946
lfingers 7.12502
lthumb -179.838 223.674
rfemur 19.4038 -11.3482 24.0292
rtibia 6.49696
rfoot 29.8244 -28.5641
rtoes 17.5282
lfemur -31.7131 -23.8261 -8.4403
ltibia 30.8331
lfoot 30.0972 -45.6208
ltoes 50.5223
298
root -5.21665 17.9766 -3.34755 -166.931 -4.19475 -173.273
lowerback -7.83048 16.8187 15.5164
upperback -14.7869 19.4563 1.83462
thorax -7.76047 7.09157 -4.72928
lowerneck -8.3283 -19.8555 -2.51257
upperneck 5.78701 -26.8134 3.16415
head 4.13784 -13.2227 -0.376949
rclavicle 5.52621e-014 2.78299e-014
rhumerus 114.754 27.161 -47.6189
rradius 68.8573
rwrist 10.5164
rhand -35.1995 26.2633
rfingers 7.12502
rthumb -8.3373 -3.55215
lclavicle 5.52621e-014 2.78299e-014
lhumerus 70.9996 24.2146 72.1472
lradius 86.2677
lwrist 30.3301
lhand -26.8644 13.3775
lfingers 7.12502
lthumb -180.289 223.357
rfemur 19.652 -11.3887 23.8114
rtibia 6.13722
rfoot 31.1805 -27.7603
rtoes 17.0585
lfemur -31.6274 -23.8701 -8.57361
ltibia 30.8298
lfoot 30.6987 -45.638
ltoes 50.9435
299
root -5.2193 17.9738 -3.3744 -167.027 -4.41098 -173.34
lowerback -7.96717 16.8166 15.3452
upperback -14.7924 19.4505 1.69369
thorax -7.68929 7.11939 -4.76831
lowerneck -8.41251 -19.8497 -2.33958
upperneck 5.86165 -26.8046 3.00274
head 4.12742 -13.2206 -0.450198
rclavicle -2.50469e-014 -9.62118e-014
rhumerus 115.114 26.7355 -47.499
rradius 69.7446
rwrist 10.3552
rhand -35.901 26.5702
rfingers 7.12502
rthumb -9.01432 -3.21721
lclavicle -2.50469e-014 -9.62118e-014
lhumerus 71.6775 24.677 72.3715
lradius 86.8358
lwrist 29.16
lhand -27.4885 12.9257
lfingers 7.12502
lthumb -180.892 222.904
rfemur 19.973 -11.4046 23.5859
rtibia 5.80095
rfoot 32.1338 -26.8779
rtoes 16.4468
lfemur -31.4546 -23.8843 -8.73872
ltibia 30.8013
lfoot 31.2958 -45.6621
ltoes 51.2352
